<svg xmlns="http://www.w3.org/2000/svg" width="180" height="180" viewBox="0 0 180 180" fill="none">
  <rect width="180" height="180" rx="36" fill="#389465"/>
  <path
    d="M90 132c-19.33 0-35-15.67-35-35 0-12.99 7.07-24.32 17.57-30.42a8.5 8.5 0 0 1 3.93-1.01c6.9 0 12.5 5.6 12.5 12.5 0 1.38-.22 2.71-.64 3.95l-1.12 3.18a3.5 3.5 0 0 0 3.26 4.59h8.8c9.66 0 17.5 7.84 17.5 17.5S99.66 132 90 132Z"
    fill="#fff"
  />
  <circle cx="72" cy="66" r="7" fill="#fff"/>
  <circle cx="98" cy="58" r="7" fill="#fff"/>
  <circle cx="118" cy="76" r="7" fill="#fff"/>
  <circle cx="106" cy="102" r="7" fill="#fff"/>
</svg>
